HIERARCHY
ROOT Pelvis
{
	OFFSET 0.000000 0.000000 0.000000
	CHANNELS 6 Xposition Yposition Zposition Xrotation Yrotation Zrotation
	JOINT LeftUpLeg_virtual
	{
		OFFSET 0.000000 0.000000 0.000000
		CHANNELS 3 Xrotation Yrotation Zrotation
		JOINT LeftUpLeg
		{
			OFFSET 18.735201 -5.666702 -4.541200
			CHANNELS 3 Xrotation Yrotation Zrotation
			JOINT LeftLeg
			{
				OFFSET -0.021200 -31.938179 0.493100
				CHANNELS 3 Xrotation Yrotation Zrotation
				JOINT LeftFoot
				{
					OFFSET 0.021200 -31.938179 -4.336299
					CHANNELS 3 Xrotation Yrotation Zrotation
					JOINT LeftToeBase
					{
						OFFSET 0.943001 -26.722000 15.023500
						CHANNELS 3 Xrotation Yrotation Zrotation
						End Site
						{
							OFFSET 0 0 0
						}
					}
				}
			}
		}
	}
	JOINT RightUpLeg_virtual
	{
		OFFSET 0.000000 0.000000 0.000000
		CHANNELS 3 Xrotation Yrotation Zrotation
		JOINT RightUpLeg
		{
			OFFSET -18.735201 -5.666702 -4.541200
			CHANNELS 3 Xrotation Yrotation Zrotation
			JOINT RightLeg
			{
				OFFSET 0.018946 -31.938133 0.493100
				CHANNELS 3 Xrotation Yrotation Zrotation
				JOINT RightFoot
				{
					OFFSET -0.018946 -31.938126 -4.336299
					CHANNELS 3 Xrotation Yrotation Zrotation
					JOINT RightToeBase
					{
						OFFSET -0.943001 -26.722004 15.023500
						CHANNELS 3 Xrotation Yrotation Zrotation
						End Site
						{
							OFFSET 0 0 0
						}
					}
				}
			}
		}
	}
	JOINT Hips_virtual
	{
		OFFSET 0.000000 0.000000 0.000000
		CHANNELS 3 Xrotation Yrotation Zrotation
		JOINT Hips
		{
			OFFSET -0.000000 -0.000000 -0.000000
			CHANNELS 3 Xrotation Yrotation Zrotation
			JOINT Spine
			{
				OFFSET 0.000000 10.199997 -0.299500
				CHANNELS 3 Xrotation Yrotation Zrotation
				JOINT Spine1
				{
					OFFSET 0.000000 11.900002 -1.516600
					CHANNELS 3 Xrotation Yrotation Zrotation
					JOINT Spine2
					{
						OFFSET 0.000000 13.600006 -2.842500
						CHANNELS 3 Xrotation Yrotation Zrotation
						JOINT Neck_virtual
						{
							OFFSET 0.000000 0.000000 0.000000
							CHANNELS 3 Xrotation Yrotation Zrotation
							JOINT Neck
							{
								OFFSET 0.000000 9.624100 -2.890100
								CHANNELS 3 Xrotation Yrotation Zrotation
								JOINT Head
								{
									OFFSET 0.000000 14.068802 -1.351900
									CHANNELS 3 Xrotation Yrotation Zrotation
									End Site
									{
										OFFSET 0 0 0
									}
								}
							}
						}
						JOINT LeftShoulder_virtual
						{
							OFFSET 0.000000 0.000000 0.000000
							CHANNELS 3 Xrotation Yrotation Zrotation
							JOINT LeftShoulder
							{
								OFFSET 15.263000 10.923401 -0.547700
								CHANNELS 3 Xrotation Yrotation Zrotation
								JOINT LeftArm
								{
									OFFSET 25.438599 -2.830597 -13.032500
									CHANNELS 3 Xrotation Yrotation Zrotation
									JOINT LeftForeArm
									{
										OFFSET 29.960503 0.000000 0.000000
										CHANNELS 3 Xrotation Yrotation Zrotation
										JOINT LeftHand
										{
											OFFSET 27.849251 0.000000 0.000000
											CHANNELS 3 Xrotation Yrotation Zrotation
											End Site
											{
												OFFSET 0 0 0
											}
										}
									}
								}
							}
						}
						JOINT RightShoulder_virtual
						{
							OFFSET 0.000000 0.000000 0.000000
							CHANNELS 3 Xrotation Yrotation Zrotation
							JOINT RightShoulder
							{
								OFFSET -15.263000 10.923401 -0.547700
								CHANNELS 3 Xrotation Yrotation Zrotation
								JOINT RightArm
								{
									OFFSET -25.438599 -2.830597 -13.032500
									CHANNELS 3 Xrotation Yrotation Zrotation
									JOINT RightForeArm
									{
										OFFSET -29.960503 0.000000 0.000000
										CHANNELS 3 Xrotation Yrotation Zrotation
										JOINT RightHand
										{
											OFFSET -27.849251 0.000000 0.000000
											CHANNELS 3 Xrotation Yrotation Zrotation
											End Site
											{
												OFFSET 0 0 0
											}
										}
									}
								}
							}
						}
					}
				}
			}
		}
	}
}
MOTION
Frames: 9
Frame Time: 0.03333333
-3.908777 89.400864 18.266241 0.000000 0.000000 0.000000 -9.280266 -18.482048 -6.027005 -31.397639 7.386726 16.557202 38.245327 -3.571397 0.171971 6.065292 -10.458773 -9.798781 0.000000 0.000000 0.000000 -9.841898 -17.701970 -5.664289 -26.720528 -20.844014 -9.407222 34.347365 6.981203 -1.547127 0.124855 4.408861 13.061693 0.000000 0.000000 0.000000 -9.182702 -17.481681 -5.683663 -0.744988 0.125931 0.065978 6.854677 0.585095 6.345946 11.429235 -1.459526 1.458452 0.000000 0.000000 0.000000 8.553375 -1.009484 0.192069 2.892842 1.301304 2.631415 0.000000 0.000000 0.000000 9.098523 -1.772240 1.220249 -2.711429 3.944217 -4.145076 64.221912 -72.985257 -7.020199 -1.295576 -22.842237 -6.880501 0.000000 0.000000 0.000000 9.635181 -0.930412 0.513900 14.577405 -2.238734 4.446312 -28.583107 39.036129 69.090587 10.823952 13.612685 1.219290 0.000000 0.000000 0.000000 
-3.893466 89.411171 18.263998 0.000000 0.000000 0.000000 -9.277879 -18.519267 -6.002279 -31.363037 7.474431 16.550571 38.204328 -3.550249 0.159917 6.077356 -10.451430 -9.766834 0.000000 0.000000 0.000000 -9.838040 -17.731789 -5.640832 -26.804804 -20.727107 -9.396056 34.427456 6.977545 -1.591006 0.163130 4.398039 13.046291 0.000000 0.000000 0.000000 -9.186139 -17.516531 -5.660902 -0.745239 0.126049 0.065860 6.855949 0.590554 6.332099 11.412883 -1.444628 1.452556 0.000000 0.000000 0.000000 8.533444 -1.000752 0.191515 2.905190 1.308820 2.625348 0.000000 0.000000 0.000000 9.075226 -1.762910 1.224181 -2.697329 4.002934 -4.191305 64.356050 -72.926988 -6.799573 -1.332400 -22.865102 -6.903249 0.000000 0.000000 0.000000 9.607272 -0.926239 0.511201 14.584095 -2.189176 4.426751 -28.563313 39.062999 69.083286 10.759401 13.524552 1.202806 0.000000 0.000000 0.000000 
-3.882926 89.417229 18.265821 0.000000 0.000000 0.000000 -9.274791 -18.548316 -5.977425 -31.339705 7.561269 16.550038 38.177172 -3.530263 0.147785 6.092083 -10.443743 -9.743706 0.000000 0.000000 0.000000 -9.833377 -17.756212 -5.618368 -26.904769 -20.623797 -9.402962 34.528474 6.990705 -1.630473 0.186811 4.407288 13.075381 0.000000 0.000000 0.000000 -9.190543 -17.546143 -5.640486 -0.745515 0.125862 0.065595 6.855064 0.592360 6.320619 11.399542 -1.427566 1.447564 0.000000 0.000000 0.000000 8.514421 -0.989075 0.192723 2.916548 1.314841 2.620781 0.000000 0.000000 0.000000 9.058302 -1.751506 1.229054 -2.683829 4.057729 -4.239845 64.350088 -72.850169 -6.716627 -1.353580 -22.904746 -6.918693 0.000000 0.000000 0.000000 9.581194 -0.919228 0.509643 14.593942 -2.128934 4.419074 -28.509041 39.086085 69.026281 10.705743 13.476502 1.180701 0.000000 0.000000 0.000000 
-3.878905 89.416718 18.270216 0.000000 0.000000 0.000000 -9.272238 -18.565098 -5.954129 -31.331188 7.640368 16.556727 38.172455 -3.514658 0.138379 6.097412 -10.439796 -9.734947 0.000000 0.000000 0.000000 -9.827792 -17.771063 -5.597190 -27.020554 -20.543309 -9.433295 34.653371 7.021776 -1.662773 0.203640 4.438463 13.145717 0.000000 0.000000 0.000000 -9.192597 -17.566195 -5.621144 -0.745643 0.125598 0.065418 6.850684 0.590774 6.309283 11.387665 -1.407951 1.442600 0.000000 0.000000 0.000000 8.494772 -0.975424 0.194748 2.927122 1.318951 2.617965 0.000000 0.000000 0.000000 9.045680 -1.738193 1.234585 -2.670858 4.107128 -4.285950 64.230300 -72.763139 -6.756821 -1.356686 -22.950441 -6.926351 0.000000 0.000000 0.000000 9.557648 -0.909518 0.508804 14.605999 -2.068614 4.421605 -28.437913 39.108717 68.948560 10.662589 13.455233 1.153174 0.000000 0.000000 0.000000 
-3.882819 89.409935 18.274311 0.000000 0.000000 0.000000 -9.269444 -18.569584 -5.933142 -31.330686 7.699163 16.565070 38.180986 -3.508602 0.137340 6.083077 -10.445802 -9.747123 0.000000 0.000000 0.000000 -9.822040 -17.775531 -5.577258 -27.142386 -20.489857 -9.476782 34.791341 7.058162 -1.687292 0.199948 4.476083 13.232318 0.000000 0.000000 0.000000 -9.191454 -17.574471 -5.602392 -0.745627 0.125277 0.065507 6.842689 0.587191 6.295822 11.374632 -1.386533 1.437309 0.000000 0.000000 0.000000 8.472178 -0.960877 0.196882 2.937766 1.321188 2.616719 0.000000 0.000000 0.000000 9.034100 -1.723926 1.240246 -2.658848 4.148899 -4.325465 64.038167 -72.674982 -6.887174 -1.343241 -22.997143 -6.926466 0.000000 0.000000 0.000000 9.536669 -0.898412 0.508635 14.619446 -2.017113 4.434648 -28.352641 39.134081 68.861571 10.627773 13.449822 1.123853 0.000000 0.000000 0.000000 
-3.893047 89.400208 18.276079 0.000000 0.000000 0.000000 -9.265474 -18.566189 -5.914999 -31.327301 7.728886 16.567361 38.187024 -3.512058 0.148290 6.049216 -10.461915 -9.779078 0.000000 0.000000 0.000000 -9.816366 -17.773139 -5.559135 -27.254678 -20.462466 -9.520141 34.921617 7.086827 -1.706327 0.159460 4.500862 13.303910 0.000000 0.000000 0.000000 -9.185491 -17.573385 -5.584443 -0.745532 0.124929 0.065961 6.832340 0.583599 6.280848 11.358132 -1.365009 1.430869 0.000000 0.000000 0.000000 8.443874 -0.947041 0.198600 2.949586 1.321688 2.616786 0.000000 0.000000 0.000000 9.019385 -1.710410 1.245456 -2.647765 4.181564 -4.355922 63.816425 -72.592097 -7.067356 -1.317313 -23.041962 -6.922026 0.000000 0.000000 0.000000 9.516458 -0.886990 0.508768 14.633185 -1.977446 4.462586 -28.249987 39.158222 68.763920 10.597640 13.451995 1.098389 0.000000 0.000000 0.000000 
-3.904751 89.391571 18.276529 0.000000 0.000000 0.000000 -9.258053 -18.559740 -5.900673 -31.313159 7.724704 16.556785 38.179125 -3.520419 0.172257 5.998127 -10.486301 -9.824582 0.000000 0.000000 0.000000 -9.807983 -17.765947 -5.543374 -27.335653 -20.446550 -9.543525 35.024397 7.099161 -1.725687 0.073726 4.499641 13.337267 0.000000 0.000000 0.000000 -9.173936 -17.566804 -5.568666 -0.745263 0.124620 0.066339 6.819951 0.581597 6.268776 11.336386 -1.345592 1.423847 0.000000 0.000000 0.000000 8.407187 -0.935457 0.199876 2.963910 1.320920 2.617864 0.000000 0.000000 0.000000 8.997815 -1.699347 1.250080 -2.637048 4.205632 -4.378487 63.609408 -72.518577 -7.249106 -1.286721 -23.091247 -6.917710 0.000000 0.000000 0.000000 9.493995 -0.877068 0.509028 14.646304 -1.947463 4.508832 -28.129535 39.181001 68.648360 10.567684 13.453839 1.083656 0.000000 0.000000 0.000000 
-3.914603 89.386223 18.276131 0.000000 0.000000 0.000000 -9.245474 -18.552233 -5.890884 -31.291945 7.689925 16.535511 38.156978 -3.528766 0.205161 5.946857 -10.514146 -9.873535 0.000000 0.000000 0.000000 -9.796120 -17.759281 -5.532015 -27.374661 -20.434913 -9.537875 35.079592 7.093707 -1.744787 -0.034400 4.476443 13.333984 0.000000 0.000000 0.000000 -9.157881 -17.558094 -5.557228 -0.744932 0.124448 0.066591 6.805182 0.581327 6.265520 11.307727 -1.329687 1.416877 0.000000 0.000000 0.000000 8.361830 -0.926864 0.200766 2.981848 1.319415 2.619557 0.000000 0.000000 0.000000 8.966472 -1.691698 1.253645 -2.625463 4.225316 -4.396277 63.434958 -72.453438 -7.408154 -1.258470 -23.141898 -6.916399 0.000000 0.000000 0.000000 9.466127 -0.869664 0.509500 14.658334 -1.924760 4.572066 -27.994820 39.202274 68.512808 10.534231 13.451147 1.083364 0.000000 0.000000 0.000000 
-3.920286 89.385544 18.275570 0.000000 0.000000 0.000000 -9.229273 -18.542365 -5.885686 -31.274992 7.640186 16.511272 38.132878 -3.530354 0.239343 5.916759 -10.537091 -9.913130 0.000000 0.000000 0.000000 -9.779943 -17.755114 -5.525923 -27.382167 -20.417232 -9.509138 35.092334 7.081905 -1.764876 -0.098200 4.452370 13.308624 0.000000 0.000000 0.000000 -9.137571 -17.549039 -5.550519 -0.744574 0.124500 0.066714 6.788916 0.582080 6.274534 11.271357 -1.317834 1.410948 0.000000 0.000000 0.000000 8.309063 -0.922021 0.201731 3.003832 1.317700 2.621602 0.000000 0.000000 0.000000 8.922873 -1.687570 1.256361 -2.611338 4.246463 -4.415045 63.300404 -72.394582 -7.532442 -1.239879 -23.185569 -6.921731 0.000000 0.000000 0.000000 9.429535 -0.865792 0.510250 14.669059 -1.906416 4.647742 -27.857142 39.224086 68.368780 10.494515 13.432265 1.099768 0.000000 0.000000 0.000000 
